<?xml version="1.0" encoding="utf-8"?>
<!-- Generator: Adobe Illustrator 23.0.4, SVG Export Plug-In . SVG Version: 6.00 Build 0)  -->
<svg version="1.1" id="Layer_1" xmlns="http://www.w3.org/2000/svg" xmlns:xlink="http://www.w3.org/1999/xlink" x="0px" y="0px"
	 viewBox="0 0 304 256.9" style="enable-background:new 0 0 304 256.9;" xml:space="preserve">
<style type="text/css">
	.st0{opacity:0.1;}
	.st1{fill:#508FB8;}
	.st2{opacity:0.1;fill:#FFFFFF;}
</style>
<g class="st0">
	<path class="st1" d="M259.6,120.4c0.6-2.7,3.2-4.5,5.9-3.9s4.5,3.2,3.9,5.9s-3.2,4.5-5.9,3.9c-2-0.4-3.5-1.9-3.9-3.9h-86.2
		c-0.6,2.7-3.2,4.5-5.9,3.9c-2.7-0.6-4.5-3.2-3.9-5.9s3.2-4.5,5.9-3.9c2,0.4,3.5,1.9,3.9,3.9H259.6z M189.4,106.4
		c-0.6,2.7-3.2,4.5-5.9,3.9c-2.7-0.6-4.5-3.2-3.9-5.9s3.2-4.5,5.9-3.9c2,0.4,3.5,1.9,3.9,3.9h86.2c0.6-2.7,3.2-4.5,5.9-3.9
		s4.5,3.2,3.9,5.9s-3.2,4.5-5.9,3.9c-2-0.4-3.5-1.9-3.9-3.9H189.4z M185.5,212.5c2.7,0.6,4.5,3.2,3.9,5.9c-0.6,2.7-3.2,4.5-5.9,3.9
		c-2.7-0.6-4.5-3.2-3.9-5.9c0.4-2,1.9-3.5,3.9-3.9v-54.2c-2.7-0.6-4.5-3.2-3.9-5.9c0.6-2.7,3.2-4.5,5.9-3.9c2.7,0.6,4.5,3.2,3.9,5.9
		c-0.4,2-1.9,3.5-3.9,3.9V212.5z M121.5,126.3v74.1h16v12.1c2.7,0.6,4.5,3.2,3.9,5.9c-0.6,2.7-3.2,4.5-5.9,3.9
		c-2.7-0.6-4.5-3.2-3.9-5.9c0.4-2,1.9-3.5,3.9-3.9v-10.1h-16v-76.1c-2.7-0.6-4.5-3.2-3.9-5.9s3.2-4.5,5.9-3.9
		c2.7,0.6,4.5,3.2,3.9,5.9C125,124.4,123.5,125.9,121.5,126.3L121.5,126.3z M115.6,104.4c0.6-2.7,3.2-4.5,5.9-3.9s4.5,3.2,3.9,5.9
		s-3.2,4.5-5.9,3.9c-2-0.4-3.5-1.9-3.9-3.9h-10.1v48H77.4c-0.6,2.7-3.2,4.5-5.9,3.9s-4.5-3.2-3.9-5.9s3.2-4.5,5.9-3.9
		c2,0.4,3.5,1.9,3.9,3.9h26.1v-48H115.6z M109.4,234.4c-0.6,2.7-3.2,4.5-5.9,3.9s-4.5-3.2-3.9-5.9s3.2-4.5,5.9-3.9
		c2,0.4,3.5,1.9,3.9,3.9h58.1v-74.1c-2.7-0.6-4.5-3.2-3.9-5.9c0.6-2.7,3.2-4.5,5.9-3.9c2.7,0.6,4.5,3.2,3.9,5.9
		c-0.4,2-1.9,3.5-3.9,3.9v76.1L109.4,234.4L109.4,234.4z M93.4,170.4c-0.6,2.7-3.2,4.5-5.9,3.9s-4.5-3.2-3.9-5.9s3.2-4.5,5.9-3.9
		c2,0.4,3.5,1.9,3.9,3.9h12.1v48h10.1c0.6-2.7,3.2-4.5,5.9-3.9s4.5,3.2,3.9,5.9c-0.6,2.7-3.2,4.5-5.9,3.9c-2-0.4-3.5-1.9-3.9-3.9
		h-12.1v-48H93.4z M189.4,234.4c-0.6,2.7-3.2,4.5-5.9,3.9c-2.7-0.6-4.5-3.2-3.9-5.9c0.6-2.7,3.2-4.5,5.9-3.9c2,0.4,3.5,1.9,3.9,3.9
		h10.1v-80h16v-14h-42.1c-0.6,2.7-3.2,4.5-5.9,3.9c-2.7-0.6-4.5-3.2-3.9-5.9c0.6-2.7,3.2-4.5,5.9-3.9c2,0.4,3.5,1.9,3.9,3.9h44.1v18
		h-16v80H189.4z M89.5,94.3v44.1H45.4c-0.6,2.7-3.2,4.5-5.9,3.9s-4.5-3.2-3.9-5.9s3.2-4.5,5.9-3.9c2,0.4,3.5,1.9,3.9,3.9h42.1V94.3
		c-2.7-0.6-4.5-3.2-3.9-5.9s3.2-4.5,5.9-3.9s4.5,3.2,3.9,5.9C93,92.4,91.5,93.9,89.5,94.3z M105.5,30.3v28.1h-32v64H61.4
		c-0.6,2.7-3.2,4.5-5.9,3.9s-4.5-3.2-3.9-5.9c0.6-2.7,3.2-4.5,5.9-3.9c2,0.4,3.5,1.9,3.9,3.9h10.1v-64h32V30.3
		c-2.7-0.6-4.5-3.2-3.9-5.9s3.2-4.5,5.9-3.9s4.5,3.2,3.9,5.9C109,28.4,107.5,29.9,105.5,30.3z M93.4,74.4c-0.6,2.7-3.2,4.5-5.9,3.9
		s-4.5-3.2-3.9-5.9s3.2-4.5,5.9-3.9c2,0.4,3.5,1.9,3.9,3.9h26.1V30.3c-2.7-0.6-4.5-3.2-3.9-5.9s3.2-4.5,5.9-3.9s4.5,3.2,3.9,5.9
		c-0.4,2-1.9,3.5-3.9,3.9v44.1H93.4z M109.4,10.4c-0.6,2.7-3.2,4.5-5.9,3.9s-4.5-3.2-3.9-5.9s3.2-4.5,5.9-3.9c2,0.4,3.5,1.9,3.9,3.9
		h28.1v44.1c2.7,0.6,4.5,3.2,3.9,5.9s-3.2,4.5-5.9,3.9s-4.5-3.2-3.9-5.9c0.4-2,1.9-3.5,3.9-3.9V10.4
		C135.5,10.4,109.4,10.4,109.4,10.4z M109.4,90.4c-0.6,2.7-3.2,4.5-5.9,3.9s-4.5-3.2-3.9-5.9s3.2-4.5,5.9-3.9c2,0.4,3.5,1.9,3.9,3.9
		h19.1l32-32h39V14.3c-2.7-0.6-4.5-3.2-3.9-5.9s3.2-4.5,5.9-3.9c2.7,0.6,4.5,3.2,3.9,5.9c-0.4,2-1.9,3.5-3.9,3.9v44.1h-40.2l-32,32
		C129.4,90.4,109.4,90.4,109.4,90.4z M137.5,180.5c2.7,0.6,4.5,3.2,3.9,5.9c-0.6,2.7-3.2,4.5-5.9,3.9c-2.7-0.6-4.5-3.2-3.9-5.9
		c0.4-2,1.9-3.5,3.9-3.9V104l31.6-31.6h48.4V14.3c-2.7-0.6-4.5-3.2-3.9-5.9s3.2-4.5,5.9-3.9c2.7,0.6,4.5,3.2,3.9,5.9
		c-0.4,2-1.9,3.5-3.9,3.9v60.1H168l-30.4,30.4V180.5z M291.6,90.4H177l-23.4,23.4v98.7c2.7,0.6,4.5,3.2,3.9,5.9
		c-0.6,2.7-3.2,4.5-5.9,3.9c-2.7-0.6-4.5-3.2-3.9-5.9c0.4-2,1.9-3.5,3.9-3.9V113l24.6-24.6h115.5 M-8.5,115.8V113 M45.4,234.4
		c-0.6,2.7-3.2,4.5-5.9,3.9s-4.5-3.2-3.9-5.9s3.2-4.5,5.9-3.9c2,0.4,3.5,1.9,3.9,3.9h10.1v-22.6l-23.4-23.4H13.4
		c-0.6,2.7-3.2,4.5-5.9,3.9s-4.5-3.2-3.9-5.9c0.6-2.7,3.2-4.5,5.9-3.9c2,0.4,3.5,1.9,3.9,3.9H33L57.5,209v25.4H45.4z M195.6,248.4
		c0.6-2.7,3.2-4.5,5.9-3.9c2.7,0.6,4.5,3.2,3.9,5.9c-0.6,2.7-3.2,4.5-5.9,3.9c-2-0.4-3.5-1.9-3.9-3.9H87.5v-56.6l-39.4-39.4H29.4
		c-0.6,2.7-3.2,4.5-5.9,3.9s-4.5-3.2-3.9-5.9c0.6-2.7,3.2-4.5,5.9-3.9c2,0.4,3.5,1.9,3.9,3.9h19.5L89.5,193v55.4L195.6,248.4
		L195.6,248.4z M45.4,250.4c-0.6,2.7-3.2,4.5-5.9,3.9s-4.5-3.2-3.9-5.9s3.2-4.5,5.9-3.9c2,0.4,3.5,1.9,3.9,3.9h26.1v-46.6
		l-31.4-31.4H13.4c-0.6,2.7-3.2,4.5-5.9,3.9s-4.5-3.2-3.9-5.9c0.6-2.7,3.2-4.5,5.9-3.9c2,0.4,3.5,1.9,3.9,3.9H41L73.5,201v49.4H45.4
		z M88.5,92.4c1.7,0,3-1.3,3-3s-1.3-3-3-3s-3,1.3-3,3S86.9,92.4,88.5,92.4z M88.5,76.4c1.7,0,3-1.3,3-3s-1.3-3-3-3s-3,1.3-3,3
		S86.9,76.4,88.5,76.4z M104.5,92.4c1.7,0,3-1.3,3-3s-1.3-3-3-3s-3,1.3-3,3S102.9,92.4,104.5,92.4z M120.5,108.4c1.7,0,3-1.3,3-3
		s-1.3-3-3-3s-3,1.3-3,3S118.9,108.4,120.5,108.4z M120.5,124.4c1.7,0,3-1.3,3-3s-1.3-3-3-3s-3,1.3-3,3S118.9,124.4,120.5,124.4z
		 M72.5,156.4c1.7,0,3-1.3,3-3s-1.3-3-3-3s-3,1.3-3,3S70.9,156.4,72.5,156.4z M88.5,172.4c1.7,0,3-1.3,3-3s-1.3-3-3-3s-3,1.3-3,3
		S86.9,172.4,88.5,172.4z M120.5,220.4c1.7,0,3-1.3,3-3s-1.3-3-3-3s-3,1.3-3,3S118.9,220.4,120.5,220.4z M104.5,236.4
		c1.7,0,3-1.3,3-3s-1.3-3-3-3s-3,1.3-3,3S102.9,236.4,104.5,236.4z M136.5,220.4c1.7,0,3-1.3,3-3s-1.3-3-3-3s-3,1.3-3,3
		S134.9,220.4,136.5,220.4z M136.5,188.4c1.7,0,3-1.3,3-3s-1.3-3-3-3s-3,1.3-3,3S134.9,188.4,136.5,188.4z M152.5,220.4
		c1.7,0,3-1.3,3-3s-1.3-3-3-3s-3,1.3-3,3S150.9,220.4,152.5,220.4z M184.5,236.4c1.7,0,3-1.3,3-3s-1.3-3-3-3s-3,1.3-3,3
		S182.9,236.4,184.5,236.4z M184.5,220.4c1.7,0,3-1.3,3-3s-1.3-3-3-3s-3,1.3-3,3S182.9,220.4,184.5,220.4z M168.5,156.4
		c1.7,0,3-1.3,3-3s-1.3-3-3-3s-3,1.3-3,3S166.9,156.4,168.5,156.4z M184.5,156.4c1.7,0,3-1.3,3-3s-1.3-3-3-3s-3,1.3-3,3
		S182.9,156.4,184.5,156.4z M200.5,252.4c1.7,0,3-1.3,3-3s-1.3-3-3-3s-3,1.3-3,3S198.9,252.4,200.5,252.4z M264.5,124.4
		c1.7,0,3-1.3,3-3s-1.3-3-3-3s-3,1.3-3,3S262.9,124.4,264.5,124.4z M168.5,124.4c1.7,0,3-1.3,3-3s-1.3-3-3-3s-3,1.3-3,3
		S166.9,124.4,168.5,124.4z M168.5,140.4c1.7,0,3-1.3,3-3s-1.3-3-3-3s-3,1.3-3,3S166.9,140.4,168.5,140.4z M184.5,108.4
		c1.7,0,3-1.3,3-3s-1.3-3-3-3s-3,1.3-3,3S182.9,108.4,184.5,108.4z M280.5,108.4c1.7,0,3-1.3,3-3s-1.3-3-3-3s-3,1.3-3,3
		S278.9,108.4,280.5,108.4z M216.5,12.4c1.7,0,3-1.3,3-3s-1.3-3-3-3l0,0c-1.7,0-3,1.3-3,3S214.9,12.4,216.5,12.4z M200.5,12.4
		c1.7,0,3-1.3,3-3s-1.3-3-3-3s-3,1.3-3,3S198.9,12.4,200.5,12.4z M40.5,252.4c1.7,0,3-1.3,3-3s-1.3-3-3-3s-3,1.3-3,3
		S38.9,252.4,40.5,252.4z M40.5,236.4c1.7,0,3-1.3,3-3s-1.3-3-3-3s-3,1.3-3,3S38.9,236.4,40.5,236.4z M104.5,28.4c1.7,0,3-1.3,3-3
		s-1.3-3-3-3s-3,1.3-3,3S102.9,28.4,104.5,28.4z M120.5,28.4c1.7,0,3-1.3,3-3s-1.3-3-3-3s-3,1.3-3,3S118.9,28.4,120.5,28.4z
		 M104.5,12.4c1.7,0,3-1.3,3-3s-1.3-3-3-3s-3,1.3-3,3S102.9,12.4,104.5,12.4z M136.5,60.4c1.7,0,3-1.3,3-3s-1.3-3-3-3s-3,1.3-3,3
		S134.9,60.4,136.5,60.4z M8.5,172.4c1.7,0,3-1.3,3-3s-1.3-3-3-3s-3,1.3-3,3S6.9,172.4,8.5,172.4z M8.5,188.4c1.7,0,3-1.3,3-3
		s-1.3-3-3-3s-3,1.3-3,3S6.9,188.4,8.5,188.4z M24.5,156.4c1.7,0,3-1.3,3-3s-1.3-3-3-3s-3,1.3-3,3S22.9,156.4,24.5,156.4z
		 M40.5,140.4c1.7,0,3-1.3,3-3s-1.3-3-3-3s-3,1.3-3,3S38.9,140.4,40.5,140.4z M56.5,124.4c1.7,0,3-1.3,3-3s-1.3-3-3-3s-3,1.3-3,3
		S54.9,124.4,56.5,124.4z"/>
	<path class="st1" d="M291.7,88.6c0.6-2.7,3.2-4.5,5.9-3.9s4.5,3.2,3.9,5.9s-3.2,4.5-5.9,3.9c-2-0.4-3.5-1.9-3.9-3.9"/>
</g>
<circle class="st2" cx="296.6" cy="89.6" r="3"/>
</svg>
