<?xml version="1.0" encoding="utf-8"?>
<!-- Generator: Adobe Illustrator 23.0.4, SVG Export Plug-In . SVG Version: 6.00 Build 0)  -->
<svg version="1.1" id="Layer_1" xmlns="http://www.w3.org/2000/svg" xmlns:xlink="http://www.w3.org/1999/xlink" x="0px" y="0px"
	 viewBox="0 0 513.643 230.526" enable-background="new 0 0 513.643 230.526" xml:space="preserve">
<g opacity="0.5">
	<path fill="#508FB8" d="M279.215,68.153c-2.7-0.6-4.5-3.2-3.9-5.9c0.6-2.7,3.2-4.5,5.9-3.9s4.5,3.2,3.9,5.9c-0.4,2-1.9,3.5-3.9,3.9
		v86.2c2.7,0.6,4.5,3.2,3.9,5.9s-3.2,4.5-5.9,3.9s-4.5-3.2-3.9-5.9c0.4-2,1.9-3.5,3.9-3.9V68.153z M265.215,138.353
		c2.7,0.6,4.5,3.2,3.9,5.9s-3.2,4.5-5.9,3.9s-4.5-3.2-3.9-5.9c0.4-2,1.9-3.5,3.9-3.9v-86.2c-2.7-0.6-4.5-3.2-3.9-5.9
		c0.6-2.7,3.2-4.5,5.9-3.9s4.5,3.2,3.9,5.9c-0.4,2-1.9,3.5-3.9,3.9V138.353z M210.701,46.087c0.6-2.7,3.2-4.5,5.9-3.9
		s4.5,3.2,3.9,5.9s-3.2,4.5-5.9,3.9c-2-0.4-3.5-1.9-3.9-3.9h-54.2c-0.6,2.7-3.2,4.5-5.9,3.9s-4.5-3.2-3.9-5.9s3.2-4.5,5.9-3.9
		c2,0.4,3.5,1.9,3.9,3.9H210.701z M124.501,110.087h74.1v-16h12.1c0.6-2.7,3.2-4.5,5.9-3.9s4.5,3.2,3.9,5.9s-3.2,4.5-5.9,3.9
		c-2-0.4-3.5-1.9-3.9-3.9h-10.1v16h-76.1c-0.6,2.7-3.2,4.5-5.9,3.9s-4.5-3.2-3.9-5.9c0.6-2.7,3.2-4.5,5.9-3.9
		C122.601,106.587,124.101,108.087,124.501,110.087L124.501,110.087z M102.601,115.987c-2.7-0.6-4.5-3.2-3.9-5.9s3.2-4.5,5.9-3.9
		s4.5,3.2,3.9,5.9c-0.4,2-1.9,3.5-3.9,3.9v10.1h48v28.1c2.7,0.6,4.5,3.2,3.9,5.9c-0.6,2.7-3.2,4.5-5.9,3.9c-2.7-0.6-4.5-3.2-3.9-5.9
		c0.4-2,1.9-3.5,3.9-3.9v-26.1h-48C102.601,128.087,102.601,115.987,102.601,115.987z M232.601,122.187c2.7,0.6,4.5,3.2,3.9,5.9
		c-0.6,2.7-3.2,4.5-5.9,3.9c-2.7-0.6-4.5-3.2-3.9-5.9c0.4-2,1.9-3.5,3.9-3.9v-58.1h-74.1c-0.6,2.7-3.2,4.5-5.9,3.9s-4.5-3.2-3.9-5.9
		s3.2-4.5,5.9-3.9c2,0.4,3.5,1.9,3.9,3.9h76.1V122.187L232.601,122.187z M168.601,138.187c2.7,0.6,4.5,3.2,3.9,5.9
		c-0.6,2.7-3.2,4.5-5.9,3.9c-2.7-0.6-4.5-3.2-3.9-5.9c0.4-2,1.9-3.5,3.9-3.9v-12.1h48v-10.1c-2.7-0.6-4.5-3.2-3.9-5.9
		s3.2-4.5,5.9-3.9s4.5,3.2,3.9,5.9c-0.4,2-1.9,3.5-3.9,3.9v12.1h-48V138.187z M232.601,42.187c2.7,0.6,4.5,3.2,3.9,5.9
		s-3.2,4.5-5.9,3.9s-4.5-3.2-3.9-5.9c0.4-2,1.9-3.5,3.9-3.9v-10.1h-80v-16h-14v42.1c2.7,0.6,4.5,3.2,3.9,5.9s-3.2,4.5-5.9,3.9
		s-4.5-3.2-3.9-5.9c0.4-2,1.9-3.5,3.9-3.9v-44.1h18v16h80V42.187z M92.501,142.087h44.1v44.1c2.7,0.6,4.5,3.2,3.9,5.9
		s-3.2,4.5-5.9,3.9c-2.7-0.6-4.5-3.2-3.9-5.9c0.4-2,1.9-3.5,3.9-3.9v-42.1h-42.1c-0.6,2.7-3.2,4.5-5.9,3.9c-2.7-0.6-4.5-3.2-3.9-5.9
		c0.6-2.7,3.2-4.5,5.9-3.9C90.601,138.587,92.101,140.087,92.501,142.087z M28.501,126.087h28.1v32h64v12.1c2.7,0.6,4.5,3.2,3.9,5.9
		s-3.2,4.5-5.9,3.9c-2.7-0.6-4.5-3.2-3.9-5.9c0.4-2,1.9-3.5,3.9-3.9v-10.1h-64v-32h-26.1c-0.6,2.7-3.2,4.5-5.9,3.9
		c-2.7-0.6-4.5-3.2-3.9-5.9c0.6-2.7,3.2-4.5,5.9-3.9C26.601,122.587,28.101,124.087,28.501,126.087z M72.601,138.187
		c2.7,0.6,4.5,3.2,3.9,5.9c-0.6,2.7-3.2,4.5-5.9,3.9c-2.7-0.6-4.5-3.2-3.9-5.9c0.4-2,1.9-3.5,3.9-3.9v-26.1h-42.1
		c-0.6,2.7-3.2,4.5-5.9,3.9s-4.5-3.2-3.9-5.9s3.2-4.5,5.9-3.9c2,0.4,3.5,1.9,3.9,3.9h44.1
		C72.601,110.087,72.601,138.187,72.601,138.187z M8.601,122.187c2.7,0.6,4.5,3.2,3.9,5.9c-0.6,2.7-3.2,4.5-5.9,3.9
		c-2.7-0.6-4.5-3.2-3.9-5.9c0.4-2,1.9-3.5,3.9-3.9v-28.1h44.1c0.6-2.7,3.2-4.5,5.9-3.9s4.5,3.2,3.9,5.9s-3.2,4.5-5.9,3.9
		c-2-0.4-3.5-1.9-3.9-3.9h-42.1V122.187z M88.601,122.187c2.7,0.6,4.5,3.2,3.9,5.9c-0.6,2.7-3.2,4.5-5.9,3.9
		c-2.7-0.6-4.5-3.2-3.9-5.9c0.4-2,1.9-3.5,3.9-3.9v-19.1l-32-32v-39h-42.1c-0.6,2.7-3.2,4.5-5.9,3.9s-4.5-3.2-3.9-5.9
		s3.2-4.5,5.9-3.9c2,0.4,3.5,1.9,3.9,3.9h44.1v40.2l32,32C88.601,102.187,88.601,122.187,88.601,122.187z M178.701,94.087
		c0.6-2.7,3.2-4.5,5.9-3.9s4.5,3.2,3.9,5.9s-3.2,4.5-5.9,3.9c-2-0.4-3.5-1.9-3.9-3.9h-76.5l-31.6-31.6v-48.4h-58.1
		c-0.6,2.7-3.2,4.5-5.9,3.9s-4.5-3.2-3.9-5.9s3.2-4.5,5.9-3.9c2,0.4,3.5,1.9,3.9,3.9h60.1v49.5l30.4,30.4h75.7V94.087z
		 M114.001,240.087h-2.8 M232.601,186.187c2.7,0.6,4.5,3.2,3.9,5.9s-3.2,4.5-5.9,3.9c-2.7-0.6-4.5-3.2-3.9-5.9
		c0.4-2,1.9-3.5,3.9-3.9v-10.1h-22.6l-23.4,23.4v18.7c2.7,0.6,4.5,3.2,3.9,5.9s-3.2,4.5-5.9,3.9c-2.7-0.6-4.5-3.2-3.9-5.9
		c0.4-2,1.9-3.5,3.9-3.9v-19.6l24.6-24.5h25.4V186.187z M246.601,35.987c-2.7-0.6-4.5-3.2-3.9-5.9s3.2-4.5,5.9-3.9s4.5,3.2,3.9,5.9
		c-0.4,2-1.9,3.5-3.9,3.9v108.1h-56.6l-39.4,39.4v18.7c2.7,0.6,4.5,3.2,3.9,5.9s-3.2,4.5-5.9,3.9c-2.7-0.6-4.5-3.2-3.9-5.9
		c0.4-2,1.9-3.5,3.9-3.9v-19.5l40.6-40.6h55.4V35.987L246.601,35.987z M248.601,186.187c2.7,0.6,4.5,3.2,3.9,5.9s-3.2,4.5-5.9,3.9
		c-2.7-0.6-4.5-3.2-3.9-5.9c0.4-2,1.9-3.5,3.9-3.9v-26.1h-46.6l-31.4,31.4v26.7c2.7,0.6,4.5,3.2,3.9,5.9s-3.2,4.5-5.9,3.9
		c-2.7-0.6-4.5-3.2-3.9-5.9c0.4-2,1.9-3.5,3.9-3.9v-27.6l32.6-32.5h49.4V186.187z M90.601,143.087c0-1.7-1.3-3-3-3s-3,1.3-3,3
		s1.3,3,3,3S90.601,144.687,90.601,143.087z M74.601,143.087c0-1.7-1.3-3-3-3s-3,1.3-3,3s1.3,3,3,3S74.601,144.687,74.601,143.087z
		 M90.601,127.087c0-1.7-1.3-3-3-3s-3,1.3-3,3s1.3,3,3,3S90.601,128.687,90.601,127.087z M106.601,111.087c0-1.7-1.3-3-3-3
		s-3,1.3-3,3s1.3,3,3,3S106.601,112.687,106.601,111.087z M122.601,111.087c0-1.7-1.3-3-3-3s-3,1.3-3,3s1.3,3,3,3
		S122.601,112.687,122.601,111.087z M154.601,159.087c0-1.7-1.3-3-3-3s-3,1.3-3,3s1.3,3,3,3S154.601,160.687,154.601,159.087z
		 M170.601,143.087c0-1.7-1.3-3-3-3s-3,1.3-3,3s1.3,3,3,3S170.601,144.687,170.601,143.087z M218.601,111.087c0-1.7-1.3-3-3-3
		s-3,1.3-3,3s1.3,3,3,3S218.601,112.687,218.601,111.087z M234.601,127.087c0-1.7-1.3-3-3-3s-3,1.3-3,3s1.3,3,3,3
		S234.601,128.687,234.601,127.087z M218.601,95.087c0-1.7-1.3-3-3-3s-3,1.3-3,3s1.3,3,3,3S218.601,96.687,218.601,95.087z
		 M186.601,95.087c0-1.7-1.3-3-3-3s-3,1.3-3,3s1.3,3,3,3S186.601,96.687,186.601,95.087z M234.601,47.087c0-1.7-1.3-3-3-3
		s-3,1.3-3,3s1.3,3,3,3S234.601,48.687,234.601,47.087z M218.601,47.087c0-1.7-1.3-3-3-3s-3,1.3-3,3s1.3,3,3,3
		S218.601,48.687,218.601,47.087z M154.601,63.087c0-1.7-1.3-3-3-3s-3,1.3-3,3s1.3,3,3,3S154.601,64.687,154.601,63.087z
		 M154.601,47.087c0-1.7-1.3-3-3-3s-3,1.3-3,3s1.3,3,3,3S154.601,48.687,154.601,47.087z M250.601,31.087c0-1.7-1.3-3-3-3
		s-3,1.3-3,3c0,1.7,1.3,3,3,3S250.601,32.687,250.601,31.087z M283.215,63.253c0-1.7-1.3-3-3-3c-1.7,0-3,1.3-3,3s1.3,3,3,3
		C281.915,66.253,283.215,64.853,283.215,63.253z M283.215,159.253c0-1.7-1.3-3-3-3c-1.7,0-3,1.3-3,3s1.3,3,3,3
		C281.915,162.253,283.215,160.853,283.215,159.253z M138.601,63.087c0-1.7-1.3-3-3-3s-3,1.3-3,3s1.3,3,3,3
		S138.601,64.687,138.601,63.087z M267.215,143.253c0-1.7-1.3-3-3-3c-1.7,0-3,1.3-3,3s1.3,3,3,3
		C265.915,146.253,267.215,144.853,267.215,143.253z M267.215,47.253c0-1.7-1.3-3-3-3c-1.7,0-3,1.3-3,3s1.3,3,3,3
		C265.915,50.253,267.215,48.853,267.215,47.253z M10.601,15.087c0-1.7-1.3-3-3-3s-3,1.3-3,3l0,0c0,1.7,1.3,3,3,3
		S10.601,16.687,10.601,15.087z M10.601,31.087c0-1.7-1.3-3-3-3s-3,1.3-3,3c0,1.7,1.3,3,3,3S10.601,32.687,10.601,31.087z
		 M250.601,191.087c0-1.7-1.3-3-3-3s-3,1.3-3,3s1.3,3,3,3S250.601,192.687,250.601,191.087z M234.601,191.087c0-1.7-1.3-3-3-3
		s-3,1.3-3,3s1.3,3,3,3S234.601,192.687,234.601,191.087z M26.601,127.087c0-1.7-1.3-3-3-3s-3,1.3-3,3s1.3,3,3,3
		S26.601,128.687,26.601,127.087z M26.601,111.087c0-1.7-1.3-3-3-3s-3,1.3-3,3s1.3,3,3,3S26.601,112.687,26.601,111.087z
		 M10.601,127.087c0-1.7-1.3-3-3-3s-3,1.3-3,3s1.3,3,3,3S10.601,128.687,10.601,127.087z M58.601,95.087c0-1.7-1.3-3-3-3s-3,1.3-3,3
		s1.3,3,3,3S58.601,96.687,58.601,95.087z M170.601,223.087c0-1.7-1.3-3-3-3s-3,1.3-3,3s1.3,3,3,3S170.601,224.687,170.601,223.087z
		 M186.601,223.087c0-1.7-1.3-3-3-3s-3,1.3-3,3s1.3,3,3,3S186.601,224.687,186.601,223.087z M154.601,207.087c0-1.7-1.3-3-3-3
		s-3,1.3-3,3s1.3,3,3,3S154.601,208.687,154.601,207.087z M138.601,191.087c0-1.7-1.3-3-3-3s-3,1.3-3,3s1.3,3,3,3
		S138.601,192.687,138.601,191.087z M122.601,175.087c0-1.7-1.3-3-3-3s-3,1.3-3,3s1.3,3,3,3S122.601,176.687,122.601,175.087z
		 M263.137,181.13c-2.7-0.6-4.5-3.2-3.9-5.9c0.6-2.7,3.2-4.5,5.9-3.9c2.7,0.6,4.5,3.2,3.9,5.9c-0.4,2-1.9,3.5-3.9,3.9v10.1h48v28.1
		c2.7,0.6,4.5,3.2,3.9,5.9c-0.6,2.7-3.2,4.5-5.9,3.9c-2.7-0.6-4.5-3.2-3.9-5.9c0.4-2,1.9-3.5,3.9-3.9v-26.1h-48
		C263.137,193.23,263.137,181.13,263.137,181.13z M267.137,176.23c0-1.7-1.3-3-3-3c-1.7,0-3,1.3-3,3s1.3,3,3,3
		C265.837,179.23,267.137,177.83,267.137,176.23z M315.137,224.23c0-1.7-1.3-3-3-3c-1.7,0-3,1.3-3,3s1.3,3,3,3
		C313.837,227.23,315.137,225.83,315.137,224.23z M327.288,177.233h-42.1c-0.4,2-1.9,3.5-3.9,3.9c-2.7,0.6-5.3-1.2-5.9-3.9
		c-0.6-2.7,1.2-5.3,3.9-5.9c2.7-0.6,5.3,1.2,5.9,3.9h44.1v28.1c2,0.4,3.5,1.9,3.9,3.9c0.6,2.7-1.2,5.3-3.9,5.9
		c-2.7,0.6-5.3-1.2-5.9-3.9c-0.6-2.7,1.2-5.3,3.9-5.9V177.233z M328.288,211.233c1.7,0,3-1.3,3-3s-1.3-3-3-3c-1.7,0-3,1.3-3,3
		C325.288,209.833,326.588,211.233,328.288,211.233z M280.288,179.233c1.7,0,3-1.3,3-3s-1.3-3-3-3c-1.7,0-3,1.3-3,3
		C277.288,177.833,278.588,179.233,280.288,179.233z M303.523,158.402h42.1v32h64v12.1c2.7,0.6,4.5,3.2,3.9,5.9
		c-0.6,2.7-3.2,4.5-5.9,3.9c-2.7-0.6-4.5-3.2-3.9-5.9c0.4-2,1.9-3.5,3.9-3.9v-10.1h-64v-32h-40.1c-0.6,2.7-3.2,4.5-5.9,3.9
		c-2.7-0.6-4.5-3.2-3.9-5.9c0.6-2.7,3.2-4.5,5.9-3.9C301.623,154.902,303.123,156.402,303.523,158.402z M301.623,159.402
		c0-1.7-1.3-3-3-3s-3,1.3-3,3s1.3,3,3,3S301.623,161.002,301.623,159.402z M411.623,207.402c0-1.7-1.3-3-3-3c-1.7,0-3,1.3-3,3
		c0,1.7,1.3,3,3,3C410.323,210.402,411.623,209.002,411.623,207.402z M361.771,175.717h132.1c0.4-2,1.9-3.5,3.9-3.9
		c2.7-0.6,5.3,1.2,5.9,3.9c0.6,2.7-1.2,5.3-3.9,5.9s-5.3-1.2-5.9-3.9h-134.1v-28.1c-2-0.4-3.5-1.9-3.9-3.9c-0.6-2.7,1.2-5.3,3.9-5.9
		c2.7-0.6,5.3,1.2,5.9,3.9c0.6,2.7-1.2,5.3-3.9,5.9V175.717z M360.771,141.717c-1.7,0-3,1.3-3,3s1.3,3,3,3s3-1.3,3-3
		C363.771,143.117,362.471,141.717,360.771,141.717z M498.771,173.717c-1.7,0-3,1.3-3,3s1.3,3,3,3s3-1.3,3-3
		C501.771,175.117,500.471,173.717,498.771,173.717z"/>
</g>
</svg>
