<?xml version="1.0" encoding="utf-8"?>
<!-- Generator: Adobe Illustrator 23.0.4, SVG Export Plug-In . SVG Version: 6.00 Build 0)  -->
<svg version="1.1" id="Layer_1" xmlns="http://www.w3.org/2000/svg" xmlns:xlink="http://www.w3.org/1999/xlink" x="0px" y="0px"
	 viewBox="0 0 304 256.869" style="enable-background:new 0 0 304 256.869;" xml:space="preserve">
<style type="text/css">
	.st0{fill:#FFFFFF;}
</style>
<path d="M259.642,120.416c0.552-2.706,3.193-4.451,5.899-3.899s4.451,3.193,3.899,5.899c-0.552,2.706-3.193,4.451-5.899,3.899
	c-1.964-0.401-3.498-1.935-3.899-3.899h-86.2c-0.552,2.706-3.193,4.451-5.899,3.899c-2.706-0.552-4.451-3.193-3.899-5.899
	c0.552-2.706,3.193-4.451,5.899-3.899c1.964,0.401,3.498,1.935,3.899,3.899H259.642z M189.442,106.416
	c-0.552,2.706-3.193,4.451-5.899,3.899c-2.706-0.552-4.451-3.193-3.899-5.899c0.552-2.706,3.193-4.451,5.899-3.899
	c1.964,0.401,3.498,1.935,3.899,3.899h86.2c0.552-2.706,3.193-4.451,5.899-3.899s4.451,3.193,3.899,5.899
	c-0.552,2.706-3.193,4.451-5.899,3.899c-1.964-0.401-3.498-1.935-3.899-3.899H189.442z M185.542,212.516
	c2.706,0.552,4.451,3.193,3.899,5.899c-0.552,2.706-3.193,4.451-5.899,3.899c-2.706-0.552-4.451-3.193-3.899-5.899
	c0.401-1.964,1.935-3.498,3.899-3.899v-54.2c-2.706-0.552-4.451-3.193-3.899-5.899c0.552-2.706,3.193-4.451,5.899-3.899
	c2.706,0.552,4.451,3.193,3.899,5.899c-0.401,1.964-1.935,3.498-3.899,3.899V212.516z M121.542,126.316v74.1h16v12.1
	c2.706,0.552,4.451,3.193,3.899,5.899c-0.552,2.706-3.193,4.451-5.899,3.899c-2.706-0.552-4.451-3.193-3.899-5.899
	c0.401-1.964,1.935-3.498,3.899-3.899v-10.1h-16v-76.1c-2.706-0.552-4.451-3.193-3.899-5.899c0.552-2.706,3.193-4.451,5.899-3.899
	c2.706,0.552,4.451,3.193,3.899,5.899C125.04,124.38,123.505,125.915,121.542,126.316L121.542,126.316z M115.642,104.416
	c0.552-2.706,3.193-4.451,5.899-3.899c2.706,0.552,4.451,3.193,3.899,5.899c-0.552,2.706-3.193,4.451-5.899,3.899
	c-1.964-0.401-3.498-1.935-3.899-3.899h-10.1v48h-28.1c-0.552,2.706-3.193,4.451-5.899,3.899c-2.706-0.552-4.451-3.193-3.899-5.899
	s3.193-4.451,5.899-3.899c1.964,0.401,3.498,1.935,3.899,3.899h26.1v-48C103.542,104.416,115.642,104.416,115.642,104.416z
	 M109.442,234.416c-0.552,2.706-3.193,4.451-5.899,3.899c-2.706-0.552-4.451-3.193-3.899-5.899s3.193-4.451,5.899-3.899
	c1.964,0.401,3.498,1.935,3.899,3.899h58.1v-74.1c-2.706-0.552-4.451-3.193-3.899-5.899c0.552-2.706,3.193-4.451,5.899-3.899
	c2.706,0.552,4.451,3.193,3.899,5.899c-0.401,1.964-1.935,3.498-3.899,3.899v76.1H109.442z M93.442,170.416
	c-0.552,2.706-3.193,4.451-5.899,3.899c-2.706-0.552-4.451-3.193-3.899-5.899s3.193-4.451,5.899-3.899
	c1.964,0.401,3.498,1.935,3.899,3.899h12.1v48h10.1c0.552-2.706,3.193-4.451,5.899-3.899c2.706,0.552,4.451,3.193,3.899,5.899
	c-0.552,2.706-3.193,4.451-5.899,3.899c-1.964-0.401-3.498-1.935-3.899-3.899h-12.1v-48H93.442z M189.442,234.416
	c-0.552,2.706-3.193,4.451-5.899,3.899c-2.706-0.552-4.451-3.193-3.899-5.899c0.552-2.706,3.193-4.451,5.899-3.899
	c1.964,0.401,3.498,1.935,3.899,3.899h10.1v-80h16v-14h-42.1c-0.552,2.706-3.193,4.451-5.899,3.899
	c-2.706-0.552-4.451-3.193-3.899-5.899c0.552-2.706,3.193-4.451,5.899-3.899c1.964,0.401,3.498,1.935,3.899,3.899h44.1v18h-16v80
	H189.442z M89.542,94.316v44.1h-44.1c-0.552,2.706-3.193,4.451-5.899,3.899c-2.706-0.552-4.451-3.193-3.899-5.899
	s3.193-4.451,5.899-3.899c1.964,0.401,3.498,1.935,3.899,3.899h42.1v-42.1c-2.706-0.552-4.451-3.193-3.899-5.899
	s3.193-4.451,5.899-3.899s4.451,3.193,3.899,5.899C93.04,92.38,91.505,93.915,89.542,94.316z M105.542,30.316v28.1h-32v64h-12.1
	c-0.552,2.706-3.193,4.451-5.899,3.899c-2.706-0.552-4.451-3.193-3.899-5.899c0.552-2.706,3.193-4.451,5.899-3.899
	c1.964,0.401,3.498,1.935,3.899,3.899h10.1v-64h32v-26.1c-2.706-0.552-4.451-3.193-3.899-5.899s3.193-4.451,5.899-3.899
	c2.706,0.552,4.451,3.193,3.899,5.899C109.04,28.38,107.505,29.915,105.542,30.316z M93.442,74.416
	c-0.552,2.706-3.193,4.451-5.899,3.899s-4.451-3.193-3.899-5.899s3.193-4.451,5.899-3.899c1.964,0.401,3.498,1.935,3.899,3.899h26.1
	v-42.1c-2.706-0.552-4.451-3.193-3.899-5.899s3.193-4.451,5.899-3.899c2.706,0.552,4.451,3.193,3.899,5.899
	c-0.401,1.964-1.935,3.498-3.899,3.899v44.1H93.442z M109.442,10.416c-0.552,2.706-3.193,4.451-5.899,3.899
	s-4.451-3.193-3.899-5.899s3.193-4.451,5.899-3.899c1.964,0.401,3.498,1.935,3.899,3.899h28.1v44.1
	c2.706,0.552,4.451,3.193,3.899,5.899c-0.552,2.706-3.193,4.451-5.899,3.899s-4.451-3.193-3.899-5.899
	c0.401-1.964,1.935-3.498,3.899-3.899v-42.1H109.442z M109.442,90.416c-0.552,2.706-3.193,4.451-5.899,3.899
	s-4.451-3.193-3.899-5.899s3.193-4.451,5.899-3.899c1.964,0.401,3.498,1.935,3.899,3.899h19.1l32-32h39v-42.1
	c-2.706-0.552-4.451-3.193-3.899-5.899c0.552-2.706,3.193-4.451,5.899-3.899c2.706,0.552,4.451,3.193,3.899,5.899
	c-0.401,1.964-1.935,3.498-3.899,3.899v44.1h-40.17l-32,32C129.372,90.416,109.442,90.416,109.442,90.416z M137.542,180.516
	c2.706,0.552,4.451,3.193,3.899,5.899c-0.552,2.706-3.193,4.451-5.899,3.899c-2.706-0.552-4.451-3.193-3.899-5.899
	c0.401-1.964,1.935-3.498,3.899-3.899v-76.51l31.59-31.59h48.41v-58.1c-2.706-0.552-4.451-3.193-3.899-5.899
	c0.552-2.706,3.193-4.451,5.899-3.899c2.706,0.552,4.451,3.193,3.899,5.899c-0.401,1.964-1.935,3.498-3.899,3.899v60.1h-49.59
	l-30.41,30.41V180.516z M291.642,90.416h-114.69l-23.41,23.41v98.69c2.706,0.552,4.451,3.193,3.899,5.899
	c-0.552,2.706-3.193,4.451-5.899,3.899c-2.706-0.552-4.451-3.193-3.899-5.899c0.401-1.964,1.935-3.498,3.899-3.899v-99.51
	l24.59-24.59h115.51 M-8.458,115.826v-2.82 M45.442,234.416c-0.552,2.706-3.193,4.451-5.899,3.899
	c-2.706-0.552-4.451-3.193-3.899-5.899s3.193-4.451,5.899-3.899c1.964,0.401,3.498,1.935,3.899,3.899h10.1v-22.59l-23.41-23.41
	h-18.69c-0.552,2.706-3.193,4.451-5.899,3.899c-2.706-0.552-4.451-3.193-3.899-5.899c0.552-2.706,3.193-4.451,5.899-3.899
	c1.964,0.401,3.498,1.935,3.899,3.899h19.51l24.59,24.59v25.41C57.542,234.416,45.442,234.416,45.442,234.416z M195.642,248.416
	c0.552-2.706,3.193-4.451,5.899-3.899c2.706,0.552,4.451,3.193,3.899,5.899c-0.552,2.706-3.193,4.451-5.899,3.899
	c-1.964-0.401-3.498-1.935-3.899-3.899h-108.1v-56.6l-39.4-39.4h-18.7c-0.552,2.706-3.193,4.451-5.899,3.899
	c-2.706-0.552-4.451-3.193-3.899-5.899c0.552-2.706,3.193-4.451,5.899-3.899c1.964,0.401,3.498,1.935,3.899,3.899h19.5l40.6,40.6
	v55.4H195.642L195.642,248.416z M45.442,250.416c-0.552,2.706-3.193,4.451-5.899,3.899c-2.706-0.552-4.451-3.193-3.899-5.899
	s3.193-4.451,5.899-3.899c1.964,0.401,3.498,1.935,3.899,3.899h26.1v-46.59l-31.41-31.41h-26.69
	c-0.552,2.706-3.193,4.451-5.899,3.899c-2.706-0.552-4.451-3.193-3.899-5.899c0.552-2.706,3.193-4.451,5.899-3.899
	c1.964,0.401,3.498,1.935,3.899,3.899h27.51l32.59,32.59v49.41C73.542,250.416,45.442,250.416,45.442,250.416z M88.542,92.416
	c1.657,0,3-1.343,3-3s-1.343-3-3-3s-3,1.343-3,3S86.885,92.416,88.542,92.416z M88.542,76.416c1.657,0,3-1.343,3-3s-1.343-3-3-3
	s-3,1.343-3,3S86.885,76.416,88.542,76.416z M104.542,92.416c1.657,0,3-1.343,3-3s-1.343-3-3-3s-3,1.343-3,3
	S102.885,92.416,104.542,92.416z M120.542,108.416c1.657,0,3-1.343,3-3s-1.343-3-3-3c-1.657,0-3,1.343-3,3
	S118.885,108.416,120.542,108.416z M120.542,124.416c1.657,0,3-1.343,3-3c0-1.657-1.343-3-3-3c-1.657,0-3,1.343-3,3
	C117.542,123.073,118.885,124.416,120.542,124.416z M72.542,156.416c1.657,0,3-1.343,3-3s-1.343-3-3-3s-3,1.343-3,3
	S70.885,156.416,72.542,156.416z M88.542,172.416c1.657,0,3-1.343,3-3s-1.343-3-3-3s-3,1.343-3,3S86.885,172.416,88.542,172.416z
	 M120.542,220.416c1.657,0,3-1.343,3-3s-1.343-3-3-3c-1.657,0-3,1.343-3,3S118.885,220.416,120.542,220.416z M104.542,236.416
	c1.657,0,3-1.343,3-3s-1.343-3-3-3s-3,1.343-3,3S102.885,236.416,104.542,236.416z M136.542,220.416c1.657,0,3-1.343,3-3
	s-1.343-3-3-3s-3,1.343-3,3S134.885,220.416,136.542,220.416z M136.542,188.416c1.657,0,3-1.343,3-3s-1.343-3-3-3s-3,1.343-3,3
	S134.885,188.416,136.542,188.416z M152.542,220.416c1.657,0,3-1.343,3-3s-1.343-3-3-3s-3,1.343-3,3
	S150.885,220.416,152.542,220.416z M184.542,236.416c1.657,0,3-1.343,3-3s-1.343-3-3-3s-3,1.343-3,3
	S182.885,236.416,184.542,236.416z M184.542,220.416c1.657,0,3-1.343,3-3s-1.343-3-3-3s-3,1.343-3,3
	S182.885,220.416,184.542,220.416z M168.542,156.416c1.657,0,3-1.343,3-3s-1.343-3-3-3s-3,1.343-3,3
	S166.885,156.416,168.542,156.416z M184.542,156.416c1.657,0,3-1.343,3-3s-1.343-3-3-3s-3,1.343-3,3
	S182.885,156.416,184.542,156.416z M200.542,252.416c1.657,0,3-1.343,3-3s-1.343-3-3-3s-3,1.343-3,3
	S198.885,252.416,200.542,252.416z M264.542,124.416c1.657,0,3-1.343,3-3c0-1.657-1.343-3-3-3s-3,1.343-3,3
	C261.542,123.073,262.885,124.416,264.542,124.416z M168.542,124.416c1.657,0,3-1.343,3-3c0-1.657-1.343-3-3-3s-3,1.343-3,3
	C165.542,123.073,166.885,124.416,168.542,124.416z M168.542,140.416c1.657,0,3-1.343,3-3s-1.343-3-3-3s-3,1.343-3,3
	S166.885,140.416,168.542,140.416z M184.542,108.416c1.657,0,3-1.343,3-3s-1.343-3-3-3s-3,1.343-3,3
	S182.885,108.416,184.542,108.416z M280.542,108.416c1.657,0,3-1.343,3-3s-1.343-3-3-3s-3,1.343-3,3
	S278.885,108.416,280.542,108.416z M216.542,12.416c1.657,0,3-1.343,3-3s-1.343-3-3-3l0,0c-1.657,0-3,1.343-3,3
	S214.885,12.416,216.542,12.416z M200.542,12.416c1.657,0,3-1.343,3-3s-1.343-3-3-3s-3,1.343-3,3S198.885,12.416,200.542,12.416z
	 M40.542,252.416c1.657,0,3-1.343,3-3s-1.343-3-3-3s-3,1.343-3,3S38.885,252.416,40.542,252.416z M40.542,236.416
	c1.657,0,3-1.343,3-3s-1.343-3-3-3s-3,1.343-3,3S38.885,236.416,40.542,236.416z M104.542,28.416c1.657,0,3-1.343,3-3
	c0-1.657-1.343-3-3-3s-3,1.343-3,3C101.542,27.073,102.885,28.416,104.542,28.416z M120.542,28.416c1.657,0,3-1.343,3-3
	c0-1.657-1.343-3-3-3c-1.657,0-3,1.343-3,3C117.542,27.073,118.885,28.416,120.542,28.416z M104.542,12.416c1.657,0,3-1.343,3-3
	s-1.343-3-3-3s-3,1.343-3,3S102.885,12.416,104.542,12.416z M136.542,60.416c1.657,0,3-1.343,3-3s-1.343-3-3-3s-3,1.343-3,3
	S134.885,60.416,136.542,60.416z M8.542,172.416c1.657,0,3-1.343,3-3s-1.343-3-3-3s-3,1.343-3,3S6.885,172.416,8.542,172.416z
	 M8.542,188.416c1.657,0,3-1.343,3-3s-1.343-3-3-3s-3,1.343-3,3S6.885,188.416,8.542,188.416z M24.542,156.416c1.657,0,3-1.343,3-3
	s-1.343-3-3-3c-1.657,0-3,1.343-3,3S22.885,156.416,24.542,156.416z M40.542,140.416c1.657,0,3-1.343,3-3s-1.343-3-3-3s-3,1.343-3,3
	S38.885,140.416,40.542,140.416z M56.542,124.416c1.657,0,3-1.343,3-3c0-1.657-1.343-3-3-3s-3,1.343-3,3
	C53.542,123.073,54.885,124.416,56.542,124.416z"/>
<path d="M291.661,88.587c0.552-2.706,3.193-4.451,5.899-3.899s4.451,3.193,3.899,5.899c-0.552,2.706-3.193,4.451-5.899,3.899
	c-1.964-0.401-3.498-1.935-3.899-3.899"/>
<circle class="st0" cx="296.561" cy="89.587" r="3"/>
</svg>
