<?xml version="1.0" encoding="utf-8"?>
<!-- Generator: Adobe Illustrator 16.0.0, SVG Export Plug-In . SVG Version: 6.00 Build 0)  -->
<!DOCTYPE svg PUBLIC "-//W3C//DTD SVG 1.1//EN" "http://www.w3.org/Graphics/SVG/1.1/DTD/svg11.dtd">
<svg version="1.1" id="Ebene_1" xmlns="http://www.w3.org/2000/svg" xmlns:xlink="http://www.w3.org/1999/xlink" x="0px" y="0px"
	 width="66.331px" height="61.229px" viewBox="0 0 66.331 61.229" enable-background="new 0 0 66.331 61.229" xml:space="preserve">
<g>
	<defs>
		<rect id="SVGID_1_" y="0" width="66.331" height="61.228"/>
	</defs>
	<clipPath id="SVGID_2_">
		<use xlink:href="#SVGID_1_"  overflow="visible"/>
	</clipPath>
	<path clip-path="url(#SVGID_2_)" fill="#AB3911" d="M58.431,40.737c0.553,0,1-0.448,1-1c0-0.554-0.447-1-1-1H47.986v-4.233
		c1.016,0.402,2.879-0.538,4.42-2.31c1.71-1.967,2.365-4.197,1.461-4.982c-0.902-0.785-3.021,0.173-4.73,2.139
		c-0.47,0.54-0.851,1.098-1.15,1.642v-3.712c1.016,0.403,2.879-0.538,4.42-2.31c1.71-1.966,2.365-4.198,1.461-4.982
		c-0.902-0.785-3.021,0.173-4.73,2.14c-0.47,0.539-0.851,1.097-1.15,1.641v-3.712c1.016,0.403,2.879-0.537,4.42-2.309
		c1.71-1.967,2.365-4.198,1.461-4.984c-0.902-0.784-3.021,0.174-4.73,2.141c-0.47,0.54-0.851,1.098-1.15,1.642v-0.922V3.019
		c0-0.552-0.447-1-1-1c-0.552,0-1,0.448-1,1v12.607v1.092c-0.311-0.598-0.717-1.216-1.236-1.812
		c-1.709-1.967-3.828-2.925-4.729-2.141c-0.905,0.786-0.25,3.017,1.461,4.984c1.586,1.826,3.513,2.763,4.505,2.262v3.929
		c-0.311-0.597-0.717-1.215-1.236-1.811c-1.709-1.967-3.828-2.925-4.729-2.14c-0.905,0.784-0.25,3.016,1.461,4.982
		c1.586,1.827,3.513,2.764,4.505,2.263v3.929c-0.311-0.597-0.717-1.215-1.236-1.812c-1.709-1.966-3.828-2.924-4.729-2.139
		c-0.905,0.785-0.25,3.015,1.461,4.982c1.586,1.826,3.513,2.763,4.505,2.263v4.28H20.361v-4.233c1.016,0.402,2.879-0.538,4.42-2.31
		c1.71-1.967,2.364-4.197,1.461-4.982c-0.903-0.785-3.022,0.173-4.731,2.139c-0.469,0.54-0.85,1.098-1.15,1.643v-3.713
		c1.016,0.403,2.879-0.538,4.42-2.31c1.71-1.966,2.364-4.198,1.461-4.982c-0.903-0.785-3.022,0.173-4.731,2.14
		c-0.469,0.54-0.85,1.098-1.15,1.642v-3.713c1.016,0.403,2.879-0.537,4.42-2.309c1.71-1.967,2.364-4.198,1.461-4.984
		c-0.903-0.784-3.022,0.174-4.731,2.141c-0.469,0.54-0.85,1.098-1.15,1.643v-0.923V3.019c0-0.552-0.448-1-1-1c-0.552,0-1,0.448-1,1
		v12.607v1.09c-0.31-0.597-0.718-1.214-1.236-1.81c-1.709-1.967-3.828-2.925-4.731-2.141c-0.903,0.786-0.249,3.017,1.461,4.984
		c1.587,1.825,3.513,2.763,4.506,2.262v3.928c-0.31-0.597-0.718-1.214-1.236-1.81c-1.709-1.967-3.828-2.925-4.731-2.14
		c-0.903,0.784-0.249,3.016,1.461,4.982c1.587,1.826,3.513,2.763,4.506,2.263v3.928c-0.31-0.597-0.718-1.214-1.236-1.811
		c-1.709-1.966-3.828-2.924-4.731-2.139c-0.903,0.785-0.249,3.015,1.461,4.982c1.587,1.826,3.513,2.763,4.506,2.263v4.28H7.9
		c-0.552,0-1,0.446-1,1c0,0.552,0.448,1,1,1h10.461v4.198h-5.513l-2.409,4.893c-0.116-0.014-0.229-0.035-0.348-0.035
		c-1.532,0-2.778,1.247-2.778,2.78c0,1.531,1.246,2.776,2.778,2.776c1.531,0,2.777-1.245,2.777-2.776
		c0-0.687-0.258-1.306-0.671-1.79l1.895-3.848h4.269v6.898c-1.059,0.393-1.818,1.404-1.818,2.596c0,1.532,1.246,2.779,2.778,2.779
		c1.531,0,2.777-1.247,2.777-2.779c0-1.163-0.72-2.157-1.737-2.57v-6.924h3.946l2.119,3.867c-0.402,0.482-0.654,1.095-0.654,1.771
		c0,1.531,1.247,2.776,2.779,2.776c1.531,0,2.777-1.245,2.777-2.776c0-1.533-1.246-2.78-2.777-2.78
		c-0.129,0-0.253,0.022-0.377,0.038l-2.682-4.896h-5.131v-4.198h25.625v4.198h-5.973l-2.401,4.874
		c-1.453,0.091-2.61,1.288-2.61,2.764c0,1.531,1.246,2.776,2.778,2.776c1.533,0,2.779-1.245,2.779-2.776
		c0-0.865-0.405-1.628-1.025-2.139l1.723-3.499h4.729v6.919c-1.026,0.407-1.754,1.406-1.754,2.575c0,1.532,1.246,2.779,2.777,2.779
		c1.532,0,2.778-1.247,2.778-2.779c0-1.187-0.752-2.193-1.802-2.591v-6.903h4.612l1.767,3.6c-0.552,0.508-0.904,1.229-0.904,2.038
		c0,1.531,1.247,2.776,2.779,2.776c1.533,0,2.779-1.245,2.779-2.776c0-1.533-1.246-2.78-2.779-2.78
		c-0.004,0-0.007,0.001-0.011,0.001l-2.386-4.858h-5.857v-4.198H58.431z M41.66,9.894v-3.37c0-0.552-0.447-1-1-1
		c-0.552,0-1,0.448-1,1v3.37c0,0.553,0.448,1,1,1C41.213,10.894,41.66,10.447,41.66,9.894 M44.845,11.241V4.502c0-0.553-0.446-1-1-1
		c-0.553,0-1,0.447-1,1v6.739c0,0.552,0.447,1,1,1C44.398,12.241,44.845,11.793,44.845,11.241 M54.398,9.894v-3.37
		c0-0.552-0.448-1-1-1c-0.554,0-1,0.448-1,1v3.37c0,0.553,0.446,1,1,1C53.95,10.894,54.398,10.447,54.398,9.894 M51.213,11.241
		V4.502c0-0.553-0.446-1-1-1c-0.553,0-1,0.447-1,1v6.739c0,0.552,0.447,1,1,1C50.767,12.241,51.213,11.793,51.213,11.241
		 M14.035,9.894v-3.37c0-0.552-0.448-1-1-1c-0.552,0-1,0.448-1,1v3.37c0,0.553,0.448,1,1,1
		C13.587,10.894,14.035,10.447,14.035,9.894 M17.22,11.241V4.502c0-0.553-0.448-1-1-1c-0.552,0-1,0.447-1,1v6.739
		c0,0.552,0.448,1,1,1C16.772,12.241,17.22,11.793,17.22,11.241 M26.773,9.894v-3.37c0-0.552-0.448-1-1-1c-0.553,0-1,0.448-1,1v3.37
		c0,0.553,0.447,1,1,1C26.325,10.894,26.773,10.447,26.773,9.894 M22.588,12.241c-0.552,0-1-0.448-1-1V4.502c0-0.553,0.448-1,1-1
		c0.552,0,1,0.447,1,1v6.739C23.588,11.793,23.14,12.241,22.588,12.241"/>
</g>
</svg>
