<?xml version="1.0" encoding="utf-8"?>
<!-- Generator: Adobe Illustrator 16.0.0, SVG Export Plug-In . SVG Version: 6.00 Build 0)  -->
<!DOCTYPE svg PUBLIC "-//W3C//DTD SVG 1.1//EN" "http://www.w3.org/Graphics/SVG/1.1/DTD/svg11.dtd">
<svg version="1.1" id="Ebene_1" xmlns="http://www.w3.org/2000/svg" xmlns:xlink="http://www.w3.org/1999/xlink" x="0px" y="0px"
	 width="66.331px" height="61.229px" viewBox="0 0 66.331 61.229" enable-background="new 0 0 66.331 61.229" xml:space="preserve">
<g>
	<defs>
		<rect id="SVGID_1_" y="0" width="66.331" height="61.228"/>
	</defs>
	<clipPath id="SVGID_2_">
		<use xlink:href="#SVGID_1_"  overflow="visible"/>
	</clipPath>
	<path clip-path="url(#SVGID_2_)" fill="#AB3911" d="M12.006,14.691h1.997V12.88c0-0.551-0.447-0.998-0.998-0.998
		c-0.552,0-0.999,0.447-0.999,0.998V14.691z M25.739,17.187c0-0.551-0.447-0.998-0.999-0.998H1.27c-0.553,0-0.999,0.447-0.999,0.998
		s0.446,0.998,0.999,0.998h23.47C25.292,18.185,25.739,17.738,25.739,17.187 M41.063,25.341l0.275,0.555h8.881l0.278-0.545
		c0.584-1.147,1.668-1.86,2.828-1.86c1.801,0,3.266,1.628,3.266,3.631c0,2.001-1.465,3.629-3.266,3.629
		c-0.775,0-1.533-0.323-2.136-0.909l-0.291-0.284h-0.55c-2.206,0-4.603,1.76-7.379,3.798c-0.59,0.433-1.19,0.874-1.804,1.306
		l-0.188,0.133l-0.11,0.202c-1.632,2.974-4.484,4.749-7.633,4.749c-2.993,0-5.769-1.639-7.426-4.384l-0.119-0.196l-0.192-0.125
		c-1.162-0.754-2.254-1.549-3.309-2.317c-2.43-1.769-4.35-3.166-5.924-3.166h-0.835l-0.29,0.283c-0.428,0.416-1.144,0.91-2.135,0.91
		c-1.801,0-3.266-1.628-3.266-3.629c0-2.003,1.465-3.631,3.266-3.631c1.16,0,2.243,0.712,2.826,1.859l0.277,0.546h9.023l0.276-0.555
		c1.562-3.148,4.562-5.105,7.828-5.105C36.503,20.236,39.502,22.192,41.063,25.341 M33.235,18.24c-3.832,0-7.352,2.153-9.324,5.659
		h-6.616c-0.786-1.201-1.97-2.013-3.294-2.291v-1.926h-1.996v1.917c-2.424,0.501-4.263,2.785-4.263,5.522
		c0,3.102,2.361,5.627,5.263,5.627c1.16,0,2.288-0.421,3.212-1.193h0.047c0.646,0,1.789,0.692,3.058,1.571
		c-1.883,0.654-3.847,2.255-3.847,5.609v3.025c0,1.705,0.852,4.655,3.792,5.649c0.016,0.041,0.046,0.073,0.064,0.113
		c0.315,1.052,1.279,1.823,2.434,1.823c1.409,0,2.551-1.142,2.551-2.551s-1.142-2.551-2.551-2.551c-0.889,0-1.67,0.455-2.127,1.145
		c-2.055-0.915-2.163-3.303-2.166-3.629v-3.025c0-3.847,3.589-3.989,3.993-3.993h0.109c0.153,0.11,1.624,1.178,2.648,1.85
		c2.036,3.229,5.388,5.15,9.013,5.15c3.757,0,7.287-2.132,9.269-5.58c0.558-0.397,1.107-0.801,1.647-1.197
		c0.104-0.075,0.203-0.147,0.305-0.223h0.126c3.846,0,3.988,3.589,3.993,3.993v3.025c0,2.075-1.043,3.067-2.069,3.545
		c-0.463-0.64-1.212-1.061-2.063-1.061c-1.408,0-2.551,1.142-2.551,2.551s1.143,2.551,2.551,2.551c1.178,0,2.158-0.802,2.452-1.886
		c0.028-0.064,0.071-0.12,0.091-0.188c1.8-0.706,3.585-2.312,3.585-5.513v-3.025c0-1.7-0.848-4.641-3.77-5.642
		c-0.002-0.001-0.006-0.002-0.006-0.002l-0.003-0.01c0,0,0.006-0.004,0.01-0.007c0.495-0.332,2.227-1.406,3.323-1.509
		c0.922,0.765,2.044,1.182,3.201,1.182c2.901,0,5.262-2.524,5.262-5.627c0-2.737-1.838-5.021-4.263-5.522v-1.917h-1.996v1.926
		c-1.323,0.278-2.509,1.09-3.294,2.291H42.56C40.588,20.393,37.067,18.24,33.235,18.24 M52.328,14.691h1.997V12.88
		c0-0.551-0.447-0.998-0.999-0.998s-0.998,0.447-0.998,0.998V14.691z M66.06,17.187c0-0.551-0.446-0.998-0.998-0.998h-23.47
		c-0.553,0-0.999,0.447-0.999,0.998s0.446,0.998,0.999,0.998h23.47C65.613,18.185,66.06,17.738,66.06,17.187"/>
</g>
</svg>
