<?xml version="1.0" encoding="utf-8"?>
<!-- Generator: Adobe Illustrator 16.0.0, SVG Export Plug-In . SVG Version: 6.00 Build 0)  -->
<!DOCTYPE svg PUBLIC "-//W3C//DTD SVG 1.1//EN" "http://www.w3.org/Graphics/SVG/1.1/DTD/svg11.dtd">
<svg version="1.1" id="Ebene_1" xmlns="http://www.w3.org/2000/svg" xmlns:xlink="http://www.w3.org/1999/xlink" x="0px" y="0px"
	 width="66.331px" height="61.229px" viewBox="0 0 66.331 61.229" enable-background="new 0 0 66.331 61.229" xml:space="preserve">
<g>
	<defs>
		<rect id="SVGID_1_" y="0" width="66.331" height="61.228"/>
	</defs>
	<clipPath id="SVGID_2_">
		<use xlink:href="#SVGID_1_"  overflow="visible"/>
	</clipPath>
	<path clip-path="url(#SVGID_2_)" fill="#AB3911" d="M40.891,16.317l-14.884-0.001l0.001-14.23l14.885,0.002L40.891,16.317z
		 M53.124,5.629c-1.059,0-1.968,0.644-2.36,1.56l-7.859-0.001l0.001-7.112L23.996,0.074v7.112l-8.43-0.001
		c-0.392-0.916-1.302-1.56-2.36-1.56c-1.414,0-2.566,1.15-2.566,2.565c0,1.415,1.151,2.566,2.566,2.566
		c1.058,0,1.967-0.643,2.359-1.559l8.43,0.001v9.129l5.083,0.001l2.195,3.065h4.35l2.195-3.064h5.085L42.904,9.2h7.859
		c0.393,0.916,1.302,1.56,2.359,1.561c1.416,0,2.566-1.151,2.567-2.566C55.69,6.78,54.54,5.629,53.124,5.629 M32.454,58.67
		l-10.466-6.426l0.001-13.317l10.466,6.425L32.454,58.67z M30.672,31.768c1.28-1.796,2.221-3.541,2.828-4.799
		c0.599,1.258,1.503,2.996,2.651,4.734c1.604,2.429,5.454,4.566,7.607,5.623l-9.781,6.216l-0.496,0.304l-10.437-6.52
		C25.166,36.298,28.91,34.238,30.672,31.768 M46.23,36.558c-0.005-0.002-0.01-0.004-0.015-0.006
		c-0.074-0.069-0.157-0.13-0.254-0.171c-0.064-0.027-6.382-2.72-8.324-5.661c-2.032-3.077-3.3-6.254-3.312-6.286
		c-0.136-0.34-0.464-0.563-0.829-0.563h-0.009c-0.369,0.003-0.697,0.233-0.826,0.578c-0.012,0.031-1.175,3.103-3.442,6.283
		c-2.184,3.063-8.336,5.618-8.397,5.644c-0.229,0.094-0.404,0.277-0.492,0.502c-0.08,0.136-0.125,0.292-0.125,0.455l-0.002,15.41
		c0,0.31,0.161,0.597,0.425,0.759l12.25,7.521c0.143,0.088,0.304,0.132,0.466,0.132c0.034,0,0.066-0.009,0.1-0.012
		c0.031,0.003,0.063,0.012,0.098,0.012c0.162,0,0.323-0.044,0.466-0.132l12.252-7.518c0.265-0.162,0.426-0.45,0.426-0.76
		l0.001-15.409C46.688,37.013,46.513,36.716,46.23,36.558"/>
</g>
</svg>
